<svg width="239" height="41" viewBox="0 0 239 41" fill="none" xmlns="http://www.w3.org/2000/svg">
<path d="M8.21093 32H1.03603L11.9685 0.331475H20.5969L31.5139 32H24.339L16.4064 7.56823H16.159L8.21093 32ZM7.7625 19.5522H24.7101V24.7787H7.7625V19.5522ZM40.9325 0.331475V32H34.237V0.331475H40.9325Z" fill="white"/>
<path d="M45.7842 17.9494C45.7842 17.9494 54.8408 16.2984 56.2951 14.8755C57.7495 13.4525 59.369 4.3645 59.369 4.3645C59.369 4.3645 60.9886 13.4525 62.4429 14.8755C63.8973 16.2984 72.9539 17.9494 72.9539 17.9494C72.9539 17.9494 63.8973 19.6003 62.4429 21.0233C60.9886 22.4462 59.369 31.5342 59.369 31.5342C59.369 31.5342 57.7495 22.4462 56.2951 21.0233C54.8408 19.6003 45.7842 17.9494 45.7842 17.9494Z" fill="white"/>
<path d="M88.3953 32.4639C85.9624 32.4639 83.8698 31.9485 82.1173 30.9176C80.3751 29.8764 79.035 28.4332 78.0969 26.5879C77.1691 24.7426 76.7052 22.619 76.7052 20.2171C76.7052 17.7842 77.1742 15.6503 78.1123 13.8153C79.0607 11.9701 80.406 10.532 82.1482 9.50112C83.8904 8.45994 85.9624 7.93934 88.3644 7.93934C90.4365 7.93934 92.2508 8.31561 93.8074 9.06815C95.364 9.82069 96.5959 10.8773 97.5031 12.2381C98.4103 13.5989 98.9103 15.1967 99.003 17.0317H92.7868C92.6116 15.8462 92.1477 14.8926 91.3952 14.171C90.6529 13.4391 89.6788 13.0731 88.4726 13.0731C87.4521 13.0731 86.5604 13.3514 85.7975 13.9081C85.045 14.4545 84.4574 15.2534 84.0347 16.3049C83.612 17.3564 83.4007 18.6295 83.4007 20.1243C83.4007 21.6397 83.6069 22.9283 84.0192 23.9901C84.4419 25.0519 85.0347 25.8611 85.7975 26.4178C86.5604 26.9745 87.4521 27.2528 88.4726 27.2528C89.2252 27.2528 89.9004 27.0982 90.4983 26.7889C91.1065 26.4797 91.6065 26.0312 91.9982 25.4436C92.4003 24.8457 92.6631 24.1293 92.7868 23.2942H99.003C98.8999 25.1086 98.4051 26.7064 97.5186 28.0878C96.6423 29.4589 95.431 30.531 93.8847 31.3042C92.3384 32.0773 90.5086 32.4639 88.3953 32.4639ZM108.905 32.4484C107.389 32.4484 106.039 32.1856 104.854 31.6598C103.668 31.1238 102.73 30.3351 102.039 29.2939C101.359 28.2425 101.019 26.9332 101.019 25.3663C101.019 24.0468 101.261 22.9386 101.745 22.0417C102.23 21.1449 102.89 20.4233 103.725 19.8769C104.56 19.3305 105.508 18.9182 106.57 18.6398C107.642 18.3615 108.766 18.1656 109.941 18.0522C111.322 17.9079 112.436 17.7739 113.281 17.6502C114.126 17.5162 114.74 17.3203 115.121 17.0626C115.502 16.8049 115.693 16.4235 115.693 15.9183V15.8255C115.693 14.8462 115.384 14.0885 114.765 13.5525C114.157 13.0164 113.291 12.7484 112.168 12.7484C110.982 12.7484 110.039 13.0113 109.338 13.537C108.637 14.0524 108.173 14.7019 107.946 15.4854L101.854 14.9905C102.163 13.5473 102.771 12.3 103.678 11.2485C104.585 10.1867 105.756 9.37226 107.188 8.80528C108.632 8.22799 110.302 7.93934 112.199 7.93934C113.518 7.93934 114.781 8.09398 115.987 8.40324C117.203 8.7125 118.281 9.19186 119.219 9.84131C120.167 10.4908 120.915 11.3258 121.461 12.3463C122.007 13.3566 122.28 14.5679 122.28 15.9802V32H116.033V28.7063H115.848C115.466 29.4486 114.956 30.1032 114.317 30.6702C113.678 31.2268 112.91 31.665 112.013 31.9845C111.116 32.2938 110.08 32.4484 108.905 32.4484ZM110.791 27.9023C111.76 27.9023 112.616 27.7116 113.358 27.3301C114.1 26.9384 114.683 26.4126 115.106 25.7529C115.528 25.0931 115.74 24.3457 115.74 23.5107V20.9902C115.533 21.1243 115.25 21.248 114.889 21.3614C114.539 21.4644 114.142 21.5624 113.698 21.6552C113.255 21.7376 112.812 21.8149 112.369 21.8871C111.925 21.949 111.523 22.0057 111.162 22.0572C110.389 22.1706 109.714 22.351 109.137 22.5984C108.56 22.8458 108.111 23.1809 107.792 23.6035C107.472 24.0159 107.312 24.5313 107.312 25.1498C107.312 26.0467 107.637 26.7322 108.286 27.2064C108.946 27.6703 109.781 27.9023 110.791 27.9023ZM135.055 32.3866C133.251 32.3866 131.617 31.9227 130.153 30.9949C128.699 30.0568 127.545 28.6806 126.689 26.8662C125.844 25.0416 125.421 22.8046 125.421 20.1552C125.421 17.4337 125.859 15.1709 126.735 13.3669C127.612 11.5526 128.777 10.197 130.23 9.3001C131.694 8.39293 133.297 7.93934 135.039 7.93934C136.369 7.93934 137.477 8.16614 138.364 8.61972C139.261 9.063 139.982 9.61967 140.529 10.2897C141.085 10.9495 141.508 11.599 141.797 12.2381H141.998V0.331475H148.569V32H142.075V28.1961H141.797C141.487 28.8558 141.049 29.5104 140.482 30.1599C139.925 30.799 139.199 31.3299 138.302 31.7526C137.415 32.1752 136.333 32.3866 135.055 32.3866ZM137.142 27.1446C138.204 27.1446 139.101 26.8559 139.833 26.2786C140.575 25.691 141.142 24.8715 141.534 23.82C141.936 22.7685 142.137 21.5366 142.137 20.1243C142.137 18.712 141.941 17.4853 141.549 16.4441C141.157 15.4029 140.59 14.5988 139.848 14.0318C139.106 13.4648 138.204 13.1814 137.142 13.1814C136.06 13.1814 135.147 13.4751 134.405 14.0627C133.663 14.6503 133.101 15.4647 132.72 16.5059C132.338 17.5471 132.148 18.7532 132.148 20.1243C132.148 21.5057 132.338 22.7273 132.72 23.7891C133.111 24.8406 133.673 25.6653 134.405 26.2632C135.147 26.8508 136.06 27.1446 137.142 27.1446ZM163.721 32.4639C161.278 32.4639 159.175 31.9691 157.412 30.9794C155.659 29.9795 154.309 28.5672 153.361 26.7425C152.412 24.9076 151.938 22.7376 151.938 20.2325C151.938 17.7894 152.412 15.6451 153.361 13.7999C154.309 11.9546 155.644 10.5165 157.366 9.48566C159.097 8.45478 161.128 7.93934 163.458 7.93934C165.025 7.93934 166.484 8.19191 167.834 8.69704C169.195 9.19186 170.38 9.93924 171.391 10.9392C172.411 11.9391 173.205 13.1968 173.772 14.7122C174.339 16.2173 174.622 17.9801 174.622 20.0006V21.8098H154.567V17.7275H168.422C168.422 16.7791 168.216 15.9389 167.803 15.207C167.391 14.4751 166.819 13.903 166.087 13.4906C165.365 13.068 164.525 12.8566 163.566 12.8566C162.566 12.8566 161.68 13.0886 160.907 13.5525C160.144 14.0061 159.546 14.6194 159.113 15.3926C158.68 16.1554 158.458 17.0059 158.448 17.944V21.8252C158.448 23.0004 158.664 24.0159 159.097 24.8715C159.541 25.7271 160.164 26.3869 160.969 26.8508C161.773 27.3147 162.726 27.5466 163.829 27.5466C164.561 27.5466 165.231 27.4435 165.839 27.2374C166.448 27.0312 166.968 26.7219 167.401 26.3096C167.834 25.8972 168.164 25.3921 168.391 24.7942L174.483 25.1962C174.174 26.6601 173.54 27.9383 172.581 29.0311C171.633 30.1135 170.406 30.9588 168.901 31.567C167.406 32.1649 165.68 32.4639 163.721 32.4639ZM177.833 32V8.24861H184.111V12.4391H184.389C184.884 11.0474 185.709 9.94955 186.863 9.14547C188.018 8.34139 189.399 7.93934 191.007 7.93934C192.636 7.93934 194.023 8.34654 195.167 9.16093C196.311 9.96502 197.074 11.0577 197.455 12.4391H197.703C198.187 11.0784 199.064 9.99079 200.331 9.1764C201.61 8.35169 203.12 7.93934 204.862 7.93934C207.079 7.93934 208.877 8.64549 210.259 10.0578C211.651 11.4598 212.346 13.4494 212.346 16.0266V32H205.775V17.3255C205.775 16.006 205.424 15.0163 204.723 14.3566C204.022 13.6968 203.146 13.3669 202.094 13.3669C200.898 13.3669 199.966 13.7483 199.295 14.5112C198.625 15.2637 198.29 16.2585 198.29 17.4956V32H191.904V17.1863C191.904 16.0214 191.569 15.0936 190.899 14.4029C190.239 13.7123 189.368 13.3669 188.286 13.3669C187.554 13.3669 186.894 13.5525 186.306 13.9236C185.729 14.2844 185.27 14.7947 184.93 15.4544C184.59 16.1039 184.42 16.8667 184.42 17.743V32H177.833ZM219.677 40.9068C218.842 40.9068 218.059 40.8398 217.327 40.7058C216.605 40.582 216.008 40.4223 215.533 40.2264L217.018 35.3091C217.791 35.5462 218.487 35.6751 219.105 35.6957C219.734 35.7163 220.275 35.572 220.729 35.2627C221.193 34.9535 221.569 34.4277 221.858 33.6855L222.244 32.6804L213.724 8.24861H220.652L225.569 25.691H225.816L230.78 8.24861H237.754L228.522 34.5669C228.079 35.8452 227.476 36.9585 226.713 37.9069C225.961 38.8656 225.007 39.6027 223.852 40.1182C222.698 40.6439 221.306 40.9068 219.677 40.9068Z" fill="white"/>
</svg>
