<svg width="44" height="46" viewBox="0 0 44 46" fill="none" xmlns="http://www.w3.org/2000/svg">
<path d="M0 0.483871C0 0.216636 0.216636 0 0.483871 0H42.8651C43.2914 0 43.5094 0.511289 43.2143 0.818878L33.8204 10.6092C33.7291 10.7043 33.603 10.7581 33.4713 10.7581H0.483871C0.216636 10.7581 0 10.5414 0 10.2742V0.483871Z" fill="white"/>
<path d="M16.5866 16.9301C16.5866 16.6629 16.8033 16.4462 17.0705 16.4462H27.0915C27.5173 16.4462 27.7355 16.9565 27.4414 17.2644L17.4204 27.7536C17.1189 28.0692 16.5866 27.8558 16.5866 27.4194V16.9301Z" fill="white"/>
<path d="M0 16.9301C0 16.6629 0.216636 16.4462 0.483871 16.4462H10.5464C10.8137 16.4462 11.0303 16.6629 11.0303 16.9301V34.2444C11.0303 34.3688 10.9824 34.4884 10.8965 34.5784L0.833973 45.1258C0.532602 45.4417 0 45.2284 0 44.7918V16.9301Z" fill="white"/>
</svg>
